<svg xmlns="http://www.w3.org/2000/svg" viewBox="0 0 900 900" width="900" height="900" preserveAspectRatio="xMidYMid slice">
<defs><filter id="n"><feTurbulence type="fractalNoise" baseFrequency="0.55" numOctaves="3"/><feColorMatrix type="saturate" values="0"/></filter></defs>
<rect width="900" height="900" fill="#6f5f4c"/>
<rect x="501" y="0" width="7" height="900" fill="#fff" opacity="0.088"/>
<rect x="257" y="0" width="28" height="900" fill="#fff" opacity="0.033"/>
<rect x="329" y="0" width="30" height="900" fill="#fff" opacity="0.085"/>
<rect x="288" y="0" width="13" height="900" fill="#fff" opacity="0.025"/>
<rect x="442" y="0" width="17" height="900" fill="#fff" opacity="0.022"/>
<rect x="121" y="0" width="25" height="900" fill="#fff" opacity="0.065"/>
<rect x="589" y="0" width="31" height="900" fill="#fff" opacity="0.040"/>
<rect x="114" y="0" width="30" height="900" fill="#fff" opacity="0.062"/>
<rect x="535" y="0" width="7" height="900" fill="#fff" opacity="0.027"/>
<rect x="688" y="0" width="10" height="900" fill="#fff" opacity="0.047"/>
<rect x="624" y="0" width="25" height="900" fill="#fff" opacity="0.071"/>
<rect x="6" y="0" width="24" height="900" fill="#fff" opacity="0.039"/>
<rect x="614" y="0" width="15" height="900" fill="#fff" opacity="0.082"/>
<rect x="306" y="0" width="13" height="900" fill="#fff" opacity="0.059"/>
<rect x="114" y="0" width="33" height="900" fill="#fff" opacity="0.023"/>
<rect x="525" y="0" width="31" height="900" fill="#fff" opacity="0.042"/>
<rect x="244" y="0" width="31" height="900" fill="#fff" opacity="0.059"/>
<rect x="176" y="0" width="37" height="900" fill="#fff" opacity="0.049"/>
<rect x="363" y="0" width="18" height="900" fill="#fff" opacity="0.078"/>
<rect x="444" y="0" width="32" height="900" fill="#fff" opacity="0.035"/>
<rect x="35" y="0" width="36" height="900" fill="#fff" opacity="0.039"/>
<rect x="150" y="0" width="16" height="900" fill="#fff" opacity="0.040"/>
<rect x="400" y="0" width="37" height="900" fill="#fff" opacity="0.061"/>
<rect x="169" y="0" width="10" height="900" fill="#fff" opacity="0.088"/>
<rect x="92" y="0" width="23" height="900" fill="#fff" opacity="0.035"/>
<rect x="146" y="0" width="19" height="900" fill="#fff" opacity="0.051"/>
<rect x="811" y="0" width="14" height="900" fill="#fff" opacity="0.057"/>
<rect x="211" y="0" width="36" height="900" fill="#fff" opacity="0.062"/>
<rect x="616" y="0" width="35" height="900" fill="#fff" opacity="0.042"/>
<rect x="453" y="0" width="19" height="900" fill="#fff" opacity="0.071"/>
<circle cx="630" cy="270" r="405" fill="#fff" opacity="0.05"/>
<rect width="900" height="900" filter="url(#n)" opacity="0.08"/>
<linearGradient id="ml" x1="0" y1="0" x2="1" y2="1"><stop offset="0" stop-color="#fff" stop-opacity="0.10"/><stop offset="1" stop-color="#000" stop-opacity="0.22"/></linearGradient>
<rect width="900" height="900" fill="url(#ml)"/>
</svg>